<mxfile host="app.diagrams.net" modified="2024-05-19T11:59:28.120Z" agent="Mozilla/5.0 (Windows NT 10.0; Win64; x64) AppleWebKit/537.36 (KHTML, like Gecko) Chrome/123.0.0.0 Safari/537.36 OPR/109.0.0.0" etag="MCMdMmw4cAXAjrcYpK0u" version="24.4.4" type="google">
  <diagram name="Pagina-1" id="57Vevj0bHYIkDguWv1nh">
    <mxGraphModel grid="1" page="1" gridSize="10" guides="1" tooltips="1" connect="1" arrows="1" fold="1" pageScale="1" pageWidth="827" pageHeight="1169" math="0" shadow="0">
      <root>
        <mxCell id="0" />
        <mxCell id="1" parent="0" />
        <mxCell id="YmsFUbm22HbYBMsGxWzi-1" value="&lt;font style=&quot;font-size: 24px;&quot;&gt;6 - setOverflow&lt;/font&gt;" style="text;html=1;align=center;verticalAlign=middle;resizable=0;points=[];autosize=1;strokeColor=none;fillColor=none;" vertex="1" parent="1">
          <mxGeometry x="285" y="40" width="180" height="40" as="geometry" />
        </mxCell>
        <mxCell id="YmsFUbm22HbYBMsGxWzi-2" value="UI" style="shape=folder;fontStyle=1;spacingTop=10;tabWidth=40;tabHeight=14;tabPosition=left;html=1;whiteSpace=wrap;" vertex="1" parent="1">
          <mxGeometry x="40" y="110" width="80" height="50" as="geometry" />
        </mxCell>
        <mxCell id="YmsFUbm22HbYBMsGxWzi-3" value="" style="endArrow=none;dashed=1;html=1;dashPattern=1 3;strokeWidth=2;rounded=0;entryX=0.5;entryY=1;entryDx=0;entryDy=0;entryPerimeter=0;exitX=0.163;exitY=1.007;exitDx=0;exitDy=0;exitPerimeter=0;" edge="1" parent="1" source="YmsFUbm22HbYBMsGxWzi-8" target="YmsFUbm22HbYBMsGxWzi-2">
          <mxGeometry width="50" height="50" relative="1" as="geometry">
            <mxPoint x="80" y="730" as="sourcePoint" />
            <mxPoint x="150" y="190" as="targetPoint" />
          </mxGeometry>
        </mxCell>
        <mxCell id="YmsFUbm22HbYBMsGxWzi-4" value="dutyMgr:&lt;div&gt;DutyManager&lt;/div&gt;" style="shape=umlLifeline;perimeter=lifelinePerimeter;whiteSpace=wrap;html=1;container=1;dropTarget=0;collapsible=0;recursiveResize=0;outlineConnect=0;portConstraint=eastwest;newEdgeStyle={&quot;curved&quot;:0,&quot;rounded&quot;:0};" vertex="1" parent="1">
          <mxGeometry x="260" y="120" width="100" height="640" as="geometry" />
        </mxCell>
        <mxCell id="YmsFUbm22HbYBMsGxWzi-5" value="" style="html=1;points=[[0,0,0,0,5],[0,1,0,0,-5],[1,0,0,0,5],[1,1,0,0,-5]];perimeter=orthogonalPerimeter;outlineConnect=0;targetShapes=umlLifeline;portConstraint=eastwest;newEdgeStyle={&quot;curved&quot;:0,&quot;rounded&quot;:0};" vertex="1" parent="YmsFUbm22HbYBMsGxWzi-4">
          <mxGeometry x="45" y="70" width="10" height="470" as="geometry" />
        </mxCell>
        <mxCell id="YmsFUbm22HbYBMsGxWzi-6" value="setOverflow(ol, task, overflow,qty, guests)" style="html=1;verticalAlign=bottom;endArrow=block;curved=0;rounded=0;entryX=0;entryY=0;entryDx=0;entryDy=5;" edge="1" parent="YmsFUbm22HbYBMsGxWzi-4">
          <mxGeometry relative="1" as="geometry">
            <mxPoint x="-180" y="80" as="sourcePoint" />
            <mxPoint x="45" y="80.00000000000102" as="targetPoint" />
          </mxGeometry>
        </mxCell>
        <mxCell id="YmsFUbm22HbYBMsGxWzi-8" value="alt&lt;div&gt;[ol == null || qty &amp;lt;= guests&lt;span style=&quot;background-color: initial;&quot;&gt;]&lt;/span&gt;&lt;/div&gt;" style="shape=umlFrame;whiteSpace=wrap;html=1;pointerEvents=0;width=160;height=50;" vertex="1" parent="1">
          <mxGeometry x="-110" y="220" width="1170" height="540" as="geometry" />
        </mxCell>
        <mxCell id="YmsFUbm22HbYBMsGxWzi-7" value="task" style="html=1;verticalAlign=bottom;endArrow=open;dashed=1;endSize=8;curved=0;rounded=0;exitX=0;exitY=1;exitDx=0;exitDy=-5;" edge="1" parent="1" source="YmsFUbm22HbYBMsGxWzi-5">
          <mxGeometry relative="1" as="geometry">
            <mxPoint x="80" y="655" as="targetPoint" />
          </mxGeometry>
        </mxCell>
        <mxCell id="YmsFUbm22HbYBMsGxWzi-9" value="" style="endArrow=none;dashed=1;html=1;dashPattern=1 3;strokeWidth=2;rounded=0;entryX=1.002;entryY=0.11;entryDx=0;entryDy=0;entryPerimeter=0;" edge="1" parent="1" target="YmsFUbm22HbYBMsGxWzi-8">
          <mxGeometry width="50" height="50" relative="1" as="geometry">
            <mxPoint x="-110" y="280" as="sourcePoint" />
            <mxPoint x="770" y="280.19999999999993" as="targetPoint" />
          </mxGeometry>
        </mxCell>
        <mxCell id="YmsFUbm22HbYBMsGxWzi-10" value="throw UseCaseLogicException" style="html=1;verticalAlign=bottom;endArrow=open;dashed=1;endSize=8;curved=0;rounded=0;" edge="1" parent="1">
          <mxGeometry relative="1" as="geometry">
            <mxPoint x="80" y="250" as="targetPoint" />
            <mxPoint x="305" y="250.0000000000001" as="sourcePoint" />
          </mxGeometry>
        </mxCell>
        <mxCell id="YmsFUbm22HbYBMsGxWzi-11" value="task:&lt;div&gt;Task&lt;/div&gt;" style="shape=umlLifeline;perimeter=lifelinePerimeter;whiteSpace=wrap;html=1;container=1;dropTarget=0;collapsible=0;recursiveResize=0;outlineConnect=0;portConstraint=eastwest;newEdgeStyle={&quot;curved&quot;:0,&quot;rounded&quot;:0};" vertex="1" parent="1">
          <mxGeometry x="510" y="120" width="100" height="640" as="geometry" />
        </mxCell>
        <mxCell id="YmsFUbm22HbYBMsGxWzi-13" value="" style="html=1;points=[[0,0,0,0,5],[0,1,0,0,-5],[1,0,0,0,5],[1,1,0,0,-5]];perimeter=orthogonalPerimeter;outlineConnect=0;targetShapes=umlLifeline;portConstraint=eastwest;newEdgeStyle={&quot;curved&quot;:0,&quot;rounded&quot;:0};" vertex="1" parent="YmsFUbm22HbYBMsGxWzi-11">
          <mxGeometry x="45" y="190" width="10" height="200" as="geometry" />
        </mxCell>
        <mxCell id="YmsFUbm22HbYBMsGxWzi-12" value="setOverflow(ol, task, overflow,qty, guests)" style="html=1;verticalAlign=bottom;endArrow=block;curved=0;rounded=0;" edge="1" parent="1">
          <mxGeometry relative="1" as="geometry">
            <mxPoint x="315" y="320" as="sourcePoint" />
            <mxPoint x="555" y="320" as="targetPoint" />
          </mxGeometry>
        </mxCell>
        <mxCell id="YmsFUbm22HbYBMsGxWzi-15" value="this.overflow = overflow" style="html=1;align=left;spacingLeft=2;endArrow=block;rounded=0;edgeStyle=orthogonalEdgeStyle;curved=0;rounded=0;" edge="1" parent="1">
          <mxGeometry relative="1" as="geometry">
            <mxPoint x="565" y="320" as="sourcePoint" />
            <Array as="points">
              <mxPoint x="590" y="350" />
            </Array>
            <mxPoint x="565" y="349.9999999999999" as="targetPoint" />
          </mxGeometry>
        </mxCell>
        <mxCell id="YmsFUbm22HbYBMsGxWzi-16" value="this.qty = qty - guests" style="html=1;align=left;spacingLeft=2;endArrow=block;rounded=0;edgeStyle=orthogonalEdgeStyle;curved=0;rounded=0;" edge="1" parent="1">
          <mxGeometry relative="1" as="geometry">
            <mxPoint x="565" y="360" as="sourcePoint" />
            <Array as="points">
              <mxPoint x="590" y="390" />
            </Array>
            <mxPoint x="565" y="389.9999999999999" as="targetPoint" />
          </mxGeometry>
        </mxCell>
        <mxCell id="YmsFUbm22HbYBMsGxWzi-17" value="ds.tasks:&lt;div&gt;ArrayList&amp;lt;Task&amp;gt;&lt;/div&gt;" style="shape=umlLifeline;perimeter=lifelinePerimeter;whiteSpace=wrap;html=1;container=1;dropTarget=0;collapsible=0;recursiveResize=0;outlineConnect=0;portConstraint=eastwest;newEdgeStyle={&quot;curved&quot;:0,&quot;rounded&quot;:0};" vertex="1" parent="1">
          <mxGeometry x="790" y="120" width="100" height="640" as="geometry" />
        </mxCell>
        <mxCell id="YmsFUbm22HbYBMsGxWzi-18" value="" style="html=1;points=[[0,0,0,0,5],[0,1,0,0,-5],[1,0,0,0,5],[1,1,0,0,-5]];perimeter=orthogonalPerimeter;outlineConnect=0;targetShapes=umlLifeline;portConstraint=eastwest;newEdgeStyle={&quot;curved&quot;:0,&quot;rounded&quot;:0};" vertex="1" parent="YmsFUbm22HbYBMsGxWzi-17">
          <mxGeometry x="45" y="335" width="10" height="25" as="geometry" />
        </mxCell>
        <mxCell id="YmsFUbm22HbYBMsGxWzi-19" value="ds.tasks.oveflowList:&lt;div&gt;arrayList&amp;lt;Task&amp;gt;&lt;/div&gt;" style="shape=umlLifeline;perimeter=lifelinePerimeter;whiteSpace=wrap;html=1;container=1;dropTarget=0;collapsible=0;recursiveResize=0;outlineConnect=0;portConstraint=eastwest;newEdgeStyle={&quot;curved&quot;:0,&quot;rounded&quot;:0};" vertex="1" parent="1">
          <mxGeometry x="660" y="120" width="120" height="640" as="geometry" />
        </mxCell>
        <mxCell id="YmsFUbm22HbYBMsGxWzi-20" value="" style="html=1;points=[[0,0,0,0,5],[0,1,0,0,-5],[1,0,0,0,5],[1,1,0,0,-5]];perimeter=orthogonalPerimeter;outlineConnect=0;targetShapes=umlLifeline;portConstraint=eastwest;newEdgeStyle={&quot;curved&quot;:0,&quot;rounded&quot;:0};" vertex="1" parent="YmsFUbm22HbYBMsGxWzi-19">
          <mxGeometry x="55" y="290" width="10" height="20.5" as="geometry" />
        </mxCell>
        <mxCell id="YmsFUbm22HbYBMsGxWzi-21" value="add(task)" style="html=1;verticalAlign=bottom;endArrow=block;curved=0;rounded=0;" edge="1" parent="1" source="YmsFUbm22HbYBMsGxWzi-13" target="YmsFUbm22HbYBMsGxWzi-20">
          <mxGeometry width="80" relative="1" as="geometry">
            <mxPoint x="562.5" y="420" as="sourcePoint" />
            <mxPoint x="734.5" y="420" as="targetPoint" />
          </mxGeometry>
        </mxCell>
        <mxCell id="YmsFUbm22HbYBMsGxWzi-22" value="remove(task)" style="html=1;verticalAlign=bottom;endArrow=block;curved=0;rounded=0;" edge="1" parent="1" source="YmsFUbm22HbYBMsGxWzi-13" target="YmsFUbm22HbYBMsGxWzi-18">
          <mxGeometry width="80" relative="1" as="geometry">
            <mxPoint x="562.5" y="460" as="sourcePoint" />
            <mxPoint x="877.5" y="460" as="targetPoint" />
          </mxGeometry>
        </mxCell>
        <mxCell id="YmsFUbm22HbYBMsGxWzi-23" value="task" style="html=1;verticalAlign=bottom;endArrow=open;dashed=1;endSize=8;curved=0;rounded=0;" edge="1" parent="1">
          <mxGeometry relative="1" as="geometry">
            <mxPoint x="315" y="500.0000000000001" as="targetPoint" />
            <mxPoint x="555" y="500.0000000000001" as="sourcePoint" />
          </mxGeometry>
        </mxCell>
        <mxCell id="YmsFUbm22HbYBMsGxWzi-24" value="" style="html=1;points=[[0,0,0,0,5],[0,1,0,0,-5],[1,0,0,0,5],[1,1,0,0,-5]];perimeter=orthogonalPerimeter;outlineConnect=0;targetShapes=umlLifeline;portConstraint=eastwest;newEdgeStyle={&quot;curved&quot;:0,&quot;rounded&quot;:0};" vertex="1" parent="1">
          <mxGeometry x="310" y="560" width="10" height="40" as="geometry" />
        </mxCell>
        <mxCell id="YmsFUbm22HbYBMsGxWzi-25" value="notifyOverflowSet(task)" style="html=1;align=left;spacingLeft=2;endArrow=block;rounded=0;edgeStyle=orthogonalEdgeStyle;curved=0;rounded=0;" edge="1" parent="1" target="YmsFUbm22HbYBMsGxWzi-24">
          <mxGeometry relative="1" as="geometry">
            <mxPoint x="315" y="540" as="sourcePoint" />
            <Array as="points">
              <mxPoint x="345" y="570" />
            </Array>
          </mxGeometry>
        </mxCell>
        <mxCell id="YmsFUbm22HbYBMsGxWzi-26" value="updateOverflowSet(task)" style="html=1;verticalAlign=bottom;endArrow=block;curved=0;rounded=0;" edge="1" parent="1" target="YmsFUbm22HbYBMsGxWzi-28">
          <mxGeometry width="80" relative="1" as="geometry">
            <mxPoint x="320" y="590" as="sourcePoint" />
            <mxPoint x="559.5" y="590" as="targetPoint" />
          </mxGeometry>
        </mxCell>
        <mxCell id="YmsFUbm22HbYBMsGxWzi-27" value="er:&lt;div&gt;DutyEventReceiver&lt;/div&gt;" style="shape=umlLifeline;perimeter=lifelinePerimeter;whiteSpace=wrap;html=1;container=1;dropTarget=0;collapsible=0;recursiveResize=0;outlineConnect=0;portConstraint=eastwest;newEdgeStyle={&quot;curved&quot;:0,&quot;rounded&quot;:0};" vertex="1" parent="1">
          <mxGeometry x="900" y="120" width="120" height="640" as="geometry" />
        </mxCell>
        <mxCell id="YmsFUbm22HbYBMsGxWzi-28" value="" style="html=1;points=[[0,0,0,0,5],[0,1,0,0,-5],[1,0,0,0,5],[1,1,0,0,-5]];perimeter=orthogonalPerimeter;outlineConnect=0;targetShapes=umlLifeline;portConstraint=eastwest;newEdgeStyle={&quot;curved&quot;:0,&quot;rounded&quot;:0};" vertex="1" parent="YmsFUbm22HbYBMsGxWzi-27">
          <mxGeometry x="55" y="460" width="10" height="30" as="geometry" />
        </mxCell>
        <mxCell id="YmsFUbm22HbYBMsGxWzi-29" value="for each er in receivers" style="shape=umlFrame;whiteSpace=wrap;html=1;pointerEvents=0;width=130;height=30;" vertex="1" parent="1">
          <mxGeometry x="160" y="530" width="820" height="100" as="geometry" />
        </mxCell>
      </root>
    </mxGraphModel>
  </diagram>
</mxfile>
